<svg width="30" height="30" viewBox="0 0 30 30" fill="none" xmlns="http://www.w3.org/2000/svg">
<path d="M3 30C2.175 30 1.469 29.7065 0.882 29.1195C0.295 28.5325 0.001 27.826 0 27V10.5C0 9.675 0.294 8.969 0.882 8.382C1.47 7.795 2.176 7.501 3 7.5H10.5V3C10.5 2.175 10.794 1.469 11.382 0.882C11.97 0.295 12.676 0.001 13.5 0H16.5C17.325 0 18.0315 0.294 18.6195 0.882C19.2075 1.47 19.501 2.176 19.5 3V7.5H27C27.825 7.5 28.5315 7.794 29.1195 8.382C29.7075 8.97 30.001 9.676 30 10.5V27C30 27.825 29.7065 28.5315 29.1195 29.1195C28.5325 29.7075 27.826 30.001 27 30H3ZM3 27H27V10.5H19.5C19.5 11.325 19.2065 12.0315 18.6195 12.6195C18.0325 13.2075 17.326 13.501 16.5 13.5H13.5C12.675 13.5 11.969 13.2065 11.382 12.6195C10.795 12.0325 10.501 11.326 10.5 10.5H3V27ZM6 24H15V23.325C15 22.9 14.881 22.506 14.643 22.143C14.405 21.78 14.074 21.499 13.65 21.3C13.15 21.075 12.644 20.9065 12.132 20.7945C11.62 20.6825 11.076 20.626 10.5 20.625C9.924 20.624 9.38 20.6805 8.868 20.7945C8.356 20.9085 7.85 21.077 7.35 21.3C6.925 21.5 6.5935 21.7815 6.3555 22.1445C6.1175 22.5075 5.999 22.901 6 23.325V24ZM18 21.75H24V19.5H18V21.75ZM10.5 19.5C11.125 19.5 11.6565 19.2815 12.0945 18.8445C12.5325 18.4075 12.751 17.876 12.75 17.25C12.749 16.624 12.5305 16.093 12.0945 15.657C11.6585 15.221 11.127 15.002 10.5 15C9.873 14.998 9.342 15.217 8.907 15.657C8.472 16.097 8.253 16.628 8.25 17.25C8.247 17.872 8.466 18.4035 8.907 18.8445C9.348 19.2855 9.879 19.504 10.5 19.5ZM18 17.25H24V15H18V17.25ZM13.5 10.5H16.5V3H13.5V10.5Z" fill="#8E8E8E"/>
</svg>
