<svg width="30" height="25" viewBox="0 0 30 25" fill="none" xmlns="http://www.w3.org/2000/svg">
<path d="M3 25C2.175 25 1.469 24.6943 0.882 24.0828C0.295 23.4714 0.001 22.7354 0 21.875V3.125C0 2.26562 0.294 1.53021 0.882 0.91875C1.47 0.307291 2.176 0.00104167 3 0H27C27.825 0 28.5315 0.30625 29.1195 0.91875C29.7075 1.53125 30.001 2.26667 30 3.125V21.875C30 22.7344 29.7065 23.4703 29.1195 24.0828C28.5325 24.6953 27.826 25.001 27 25H3ZM15 14.0625L27 6.25V3.125L15 10.9375L3 3.125V6.25L15 14.0625Z" fill="#b3b3b3"/>
</svg>
