<svg width="30" height="30" viewBox="0 0 30 30" fill="none" xmlns="http://www.w3.org/2000/svg">
<path d="M18 13.5C19.25 13.5 20.3125 13.0625 21.1875 12.1875C22.0625 11.3125 22.5 10.25 22.5 9C22.5 7.75 22.0625 6.6875 21.1875 5.8125C20.3125 4.9375 19.25 4.5 18 4.5C16.75 4.5 15.6875 4.9375 14.8125 5.8125C13.9375 6.6875 13.5 7.75 13.5 9C13.5 10.25 13.9375 11.3125 14.8125 12.1875C15.6875 13.0625 16.75 13.5 18 13.5ZM9 24C8.175 24 7.469 23.7065 6.882 23.1195C6.295 22.5325 6.001 21.826 6 21V3C6 2.175 6.294 1.469 6.882 0.882C7.47 0.295 8.176 0.001 9 0H27C27.825 0 28.5315 0.294 29.1195 0.882C29.7075 1.47 30.001 2.176 30 3V21C30 21.825 29.7065 22.5315 29.1195 23.1195C28.5325 23.7075 27.826 24.001 27 24H9ZM3 30C2.175 30 1.469 29.7065 0.882 29.1195C0.295 28.5325 0.001 27.826 0 27V6H3V27H24V30H3ZM9 21H27C25.95 19.575 24.6315 18.469 23.0445 17.682C21.4575 16.895 19.776 16.501 18 16.5C16.224 16.499 14.5425 16.893 12.9555 17.682C11.3685 18.471 10.05 19.577 9 21Z" fill="#b3b3b3"/>
</svg>
