<svg width="30" height="30" viewBox="0 0 30 30" fill="none" xmlns="http://www.w3.org/2000/svg">
<path d="M2.30368 11.6414L1.15184 13.0836L0 11.6414L1.15184 10.1992L2.30368 11.6414ZM30 27.9602C30 28.5012 29.8284 29.02 29.5228 29.4025C29.2173 29.7851 28.8029 30 28.3708 30C27.9387 30 27.5243 29.7851 27.2188 29.4025C26.9133 29.02 26.7416 28.5012 26.7416 27.9602H30ZM9.29782 23.2828L1.15184 13.0836L3.45552 10.1992L11.6015 20.3984L9.29782 23.2828ZM1.15184 10.1992L9.29782 0L11.6015 2.88434L3.45552 13.0836L1.15184 10.1992ZM2.30368 9.60155H18.5956V13.6812H2.30368V9.60155ZM30 23.8805V27.9602H26.7416V23.8805H30ZM18.5956 9.60155C21.6203 9.60155 24.521 11.1059 26.6597 13.7837C28.7985 16.4616 30 20.0935 30 23.8805H26.7416C26.7416 21.1755 25.8834 18.5812 24.3557 16.6685C22.828 14.7558 20.7561 13.6812 18.5956 13.6812V9.60155Z" fill="#8E8E8E"/>
</svg>
