<svg width="30" height="30" viewBox="0 0 30 30" fill="none" xmlns="http://www.w3.org/2000/svg">
<path d="M0 18.75V15H11.6667V18.75H0ZM0 11.25V7.5H18.3333V11.25H0ZM0 3.75V0H18.3333V3.75H0ZM15 30V24.2344L24.2083 13.9219C24.4583 13.6406 24.7361 13.4375 25.0417 13.3125C25.3472 13.1875 25.6528 13.125 25.9583 13.125C26.2917 13.125 26.6111 13.1956 26.9167 13.3369C27.2222 13.4781 27.5 13.6887 27.75 13.9688L29.2917 15.7031C29.5139 15.9844 29.6878 16.2969 29.8133 16.6406C29.9389 16.9844 30.0011 17.3281 30 17.6719C29.9989 18.0156 29.9433 18.3675 29.8333 18.7275C29.7233 19.0875 29.5428 19.4075 29.2917 19.6875L20.125 30H15ZM17.5 27.1875H19.0833L24.125 21.4688L23.375 20.5781L22.5833 19.7344L17.5 25.4062V27.1875ZM23.375 20.5781L22.5833 19.7344L24.125 21.4688L23.375 20.5781Z" fill="#8E8E8E"/>
</svg>
