<svg width="16" height="16" viewBox="0 0 16 16" fill="none" xmlns="http://www.w3.org/2000/svg">
<g clip-path="url(#clip0_106_70)">
<path d="M7.99887 16L14.4616 12.2681L11.9845 10.8355L9.452 12.2985C9.43042 12.3104 9.40616 12.3165 9.38154 12.3163C9.35691 12.3161 9.33275 12.3096 9.31137 12.2974C9.29006 12.2849 9.27234 12.2671 9.2599 12.2457C9.24746 12.2244 9.24074 12.2002 9.24037 12.1755V8.701C9.24037 8.59862 9.29337 8.506 9.382 8.455L12.3912 6.71712C12.4127 6.70491 12.437 6.69859 12.4617 6.69878C12.4863 6.69898 12.5105 6.7057 12.5317 6.71825C12.5757 6.74262 12.6032 6.78875 12.6037 6.839V9.76375L15.0825 11.1955V3.73187L7.99875 7.82075L7.99887 16Z" fill="#1d1d1dff"/>
<path d="M6.54964 12.3001L4.01589 10.8354L1.53689 12.2679L7.99889 16V7.82075L0.917511 3.73175V11.195L3.39564 9.76375V6.83925C3.39676 6.78913 3.42376 6.743 3.46714 6.7185C3.48851 6.70593 3.51282 6.69921 3.53761 6.69901C3.5624 6.69882 3.58681 6.70515 3.60839 6.71738L6.61914 8.455C6.66222 8.48008 6.69796 8.51601 6.72282 8.55922C6.74767 8.60243 6.76075 8.6514 6.76076 8.70125V12.1763C6.76042 12.201 6.75376 12.2252 6.74139 12.2467C6.72903 12.2681 6.71138 12.2861 6.69014 12.2987C6.66888 12.3112 6.64473 12.3179 6.62009 12.3182C6.59544 12.3185 6.57115 12.3123 6.54964 12.3003" fill="#4D4D4D"/>
<path d="M8.61989 0V2.8625L11.1525 4.32463C11.196 4.35 11.2219 4.39663 11.2219 4.44763C11.2219 4.498 11.1954 4.54412 11.1525 4.5695L8.14214 6.3085C8.09888 6.33304 8.05 6.34594 8.00026 6.34594C7.95053 6.34594 7.90165 6.33304 7.85839 6.3085L4.84889 4.5695C4.82751 4.55716 4.80978 4.53939 4.79749 4.51798C4.78519 4.49658 4.77878 4.47231 4.77889 4.44763C4.77871 4.42278 4.78508 4.39832 4.79737 4.37673C4.80966 4.35513 4.82743 4.33716 4.84889 4.32463L7.38101 2.8625V0L0.917389 3.73187L7.99889 7.82075L15.082 3.732L8.61989 0Z" fill="#808080"/>
</g>
<defs>
<clipPath id="clip0_106_70">
<rect width="16" height="16" fill="white"/>
</clipPath>
</defs>
</svg>
