<svg width="30" height="30" viewBox="0 0 30 30" fill="none" xmlns="http://www.w3.org/2000/svg">
<path fill-rule="evenodd" clip-rule="evenodd" d="M15 1.6481e-10C16.9698 -9.23342e-06 18.9203 0.387969 20.7402 1.14178C22.5601 1.8956 24.2137 3.00049 25.6066 4.39336C26.9995 5.78624 28.1044 7.43983 28.8582 9.25971C29.612 11.0796 30 13.0301 30 15C30 23.2842 23.2842 30 15 30C6.71575 30 0 23.2842 0 15C0 6.71575 6.71575 1.6481e-10 15 1.6481e-10ZM16.5 16.5H13.5C9.78644 16.5 6.59826 18.7491 5.22316 21.9596C7.39891 25.0106 10.9671 27 15 27C19.0328 27 22.601 25.0106 24.7768 21.9594C23.4017 18.7491 20.2136 16.5 16.5 16.5ZM15 4.5C12.5147 4.5 10.5 6.51473 10.5 8.99999C10.5 11.4853 12.5147 13.5 15 13.5C17.4852 13.5 19.5 11.4853 19.5 8.99999C19.5 6.51473 17.4853 4.5 15 4.5Z" fill="#4a4a4aff"/>
</svg>
